<svg width="32" height="32" viewBox="0 0 32 32" fill="none" xmlns="http://www.w3.org/2000/svg">
<path d="M1.52136 21.2197H5.00989V25.0229C5.00989 26.2295 5.95415 26.9902 7.00333 26.9902H10.7804V30.4787H12.8787V26.9902H19.1476V30.4787H21.246V26.9902H24.9968C26.046 26.9902 26.9902 26.2295 26.9902 25.0229V21.2197H30.4787V19.1213H26.9902V12.8787H30.4787V10.7803H26.9902V6.97704C26.9902 5.77048 26.046 5.00983 24.9968 5.00983H21.246V1.5213H19.1476V5.00983H12.8787V1.5213H10.7804V5.00983H7.00333C5.95415 5.00983 5.00989 5.77048 5.00989 6.97704V10.7803H1.52136V12.8787H5.00989V19.1213H1.52136V21.2197ZM11.4361 13.8492C10.4919 13.8492 9.7312 13.0885 9.7312 12.1443C9.7312 11.2 10.4919 10.4393 11.4361 10.4393C12.3804 10.4393 13.141 11.2 13.141 12.1443C13.141 13.0885 12.3804 13.8492 11.4361 13.8492ZM20.564 13.8492C19.6197 13.8492 18.8591 13.0885 18.8591 12.1443C18.8591 11.2 19.6197 10.4393 20.564 10.4393C21.5082 10.4393 22.2689 11.2 22.2689 12.1443C22.2689 13.0885 21.5082 13.8492 20.564 13.8492ZM9.57382 17.4688L11.2787 16.577C12.2492 18.518 14.1378 19.6721 16.0001 19.6721C17.8623 19.6721 19.7509 18.518 20.7214 16.577L22.4263 17.4688C21.0623 20.1967 18.623 21.5344 16.0001 21.5344C13.3771 21.5344 10.9378 20.1967 9.57382 17.4688Z" fill="#E62020"/>
</svg>
